<?xml version="1.0" encoding="UTF-8" standalone="no"?>
<!-- Created with Inkscape (http://www.inkscape.org/) -->

<svg
   width="42.140064mm"
   height="29.385084mm"
   viewBox="0 0 42.140064 29.385084"
   version="1.1"
   id="svg1"
   xml:space="preserve"
   xmlns="http://www.w3.org/2000/svg"
   xmlns:svg="http://www.w3.org/2000/svg"><defs
     id="defs1" /><g
     id="layer1"
     style="display:inline"
     transform="translate(-68.845924,-91.258203)"><path
       id="path21"
       style="display:inline;opacity:1;fill:#1a1a1a;stroke:none;stroke-width:1.89213;paint-order:stroke markers fill"
       d="m 68.845927,105.62301 c 0.377897,0.66462 1.5612,1.09185 2.447396,1.09941 0.564514,0.32592 -0.115894,1.54346 6.56394,1.58464 4.322048,6.17628 6.947002,16.09029 7.188192,25.64803 -2.262306,0.24704 -3.606165,0.65196 -3.596163,1.08356 0.01678,0.72562 3.785883,1.31209 8.424292,1.31084 4.640261,-0.001 8.397184,-0.59022 8.395353,-1.31613 h -0.685746 c 0.0044,-0.002 0.0087,-0.004 0.01292,-0.008 h 5.17e-4 l 0.67231,-0.001 c -0.01825,-0.42671 -1.35826,-0.8255 -3.594612,-1.06981 0.289182,-9.53933 2.909326,-19.42602 7.200074,-25.64698 6.78695,-0.0296 6.09688,-1.25709 6.66419,-1.58464 0.8862,-0.008 2.0695,-0.43479 2.4474,-1.09941 H 89.915959 Z m 21.012671,5.80257 v 0.0127 c 0,0 5.17e-4,-0.0106 5.17e-4,-0.0127 0.0983,3.31484 4.458125,8.05215 4.458125,8.05215 0,0 0.525317,5.17932 -1.46761,9.35981 l -0.05168,-0.0497 c 1.07754,-2.5237 1.371613,-5.33597 0.521932,-7.25084 l -3.46077,-4.46636 c 0,0 -2.57e-4,-0.0144 -5.17e-4,-0.0391 -2.63e-4,0.0274 0,0.0391 0,0.0391 l -3.461288,4.46636 c -0.849419,1.91487 -0.555095,4.72714 0.522449,7.25084 l -0.05168,0.0497 c -1.992924,-4.18049 -1.467611,-9.35981 -1.467611,-9.35981 0,0 4.359836,-4.73731 4.458126,-8.05215 z m -0.0041,7.11553 5.16e-4,10e-4 v 0.001 0.001 h 5.17e-4 v 10e-4 h 5.17e-4 v -10e-4 h 5.17e-4 c 2.13e-4,0.0102 3.06e-4,0.0205 5.17e-4,0.0328 0.09882,2.17224 2.921268,5.24124 2.921268,5.24124 0,0 0.34425,3.3369 -0.962732,6.07955 l -0.03359,-0.0338 c 0.706971,-1.65515 0.899784,-3.49888 0.342614,-4.75496 l -2.269112,-2.92825 c -0.02155,0.028 -2.269112,2.92825 -2.269112,2.92825 -0.557166,1.25608 -0.363578,3.09981 0.343132,4.75496 l -0.03462,0.0338 c -1.307242,-2.74208 -0.962732,-6.07955 -0.962732,-6.07955 0,0 2.822449,-3.06958 2.921269,-5.24124 2.3e-4,-0.008 8.5e-4,-0.0239 0.001,-0.0359 z m 0,4.89979 c 0,0.002 -1.4e-5,0.004 0,0.006 h -5.17e-4 z m 0,0.008 h 5.16e-4 5.17e-4 c 1.86e-4,0.0102 8.45e-4,0.0122 0.001,0.0243 0.06544,1.43727 1.933215,3.46632 1.933215,3.46632 0,0 0.228283,2.20897 -0.63717,4.02343 l -0.02274,-0.0222 c 0.467813,-1.09562 0.59559,-2.31571 0.22686,-3.14707 l -1.501718,-1.93666 c -0.01419,0.0184 -1.501717,1.9356 -1.501717,1.9356 -0.368468,0.83136 -0.240686,2.05146 0.22686,3.14707 l -0.02222,0.0222 c -0.865188,-1.81446 -0.63717,-4.02342 -0.63717,-4.02342 0,0 1.868552,-2.02906 1.933732,-3.46633 1.93e-4,-0.0117 6.3e-5,-0.0175 0,-0.0233 z"
       transform="matrix(1,0,0,0.48883806,0,53.990463)" /><path
       id="path1"
       style="display:none;opacity:1;fill:#000000;stroke:none;stroke-width:1.32292;paint-order:stroke markers fill"
       d="m 89.813639,79.67369 a 2.0565197,1.2709992 0 0 0 -2.04587,1.275374 2.0565197,1.2709992 0 0 0 1.577165,1.231966 c -0.183954,0.07713 -0.324628,0.357209 -0.348299,0.705384 -6.555864,0.296806 -11.87922,4.085949 -12.814205,8.448579 -0.158208,0.738196 -0.758787,1.359091 -1.515153,1.359091 a 1.8548408,1.8548408 0 0 0 -1.658813,1.064017 h 33.814476 l -0.26407,-0.275435 a 2.5577182,2.5577182 0 0 0 -1.84692,-0.788582 c -0.49795,0 -0.89542,-0.408968 -0.96841,-0.904855 -0.66986,-4.551026 -6.296704,-8.596189 -13.092226,-8.902815 -0.02368,-0.348084 -0.164405,-0.628201 -0.348299,-0.705384 a 2.0565197,1.2709992 0 0 0 1.577682,-1.2361 h -2.056722 l 2.056722,-0.0088 a 2.0565197,1.2709992 0 0 0 -2.067058,-1.26244 z" /><path
       id="path2"
       style="display:inline;opacity:1;fill:#1a1a1a;stroke:none;stroke-width:1.32292;paint-order:stroke markers fill"
       d="m 89.813639,91.258212 a 2.0565197,1.2709992 0 0 0 -2.04587,1.275374 2.0565197,1.2709992 0 0 0 1.577165,1.231966 c -0.183954,0.07713 -0.324628,0.357209 -0.348299,0.705384 -6.555864,0.296806 -11.87922,4.085949 -12.814205,8.448584 -0.158208,0.73819 -0.758787,1.35909 -1.515153,1.35909 a 1.8548408,1.8548408 0 0 0 -1.658813,1.06402 h 33.814476 l -0.26407,-0.27544 a 2.5577182,2.5577182 0 0 0 -1.84692,-0.78858 c -0.49795,0 -0.89542,-0.40897 -0.96841,-0.90486 -0.66986,-4.551025 -6.296704,-8.596188 -13.092226,-8.902814 -0.02368,-0.348084 -0.164405,-0.628201 -0.348299,-0.705384 a 2.0565197,1.2709992 0 0 0 1.577682,-1.2361 h -2.056722 l 2.056722,-0.0088 a 2.0565197,1.2709992 0 0 0 -2.067058,-1.26244 z" /></g><g
     id="g24"
     style="display:none"
     transform="translate(-68.845924,-91.258203)"><path
       style="font-size:12.1955px;font-family:'Noto Sans CJK SC';-inkscape-font-specification:'Noto Sans CJK SC';stroke-width:1.32292;paint-order:stroke markers fill"
       d="m 97.513956,103.53527 h 1.604409 v -6.087478 h 2.171835 v -1.298975 h -6.042124 v 1.298975 h 2.26588 z"
       id="path12" /><path
       id="path11"
       style="font-size:12.1955px;font-family:'Noto Sans CJK SC';-inkscape-font-specification:'Noto Sans CJK SC';stroke-width:1.32292;paint-order:stroke markers fill"
       d="m 89.499963,96.111963 -3.265433,7.423317 h 1.505334 l 0.826306,-1.80609 h 1.142615 l 0.821094,-1.1529 h -1.63763 l 1.104325,-2.577104 2.46755,5.536094 h 1.375109 l -3.168282,-7.423317 z" /><path
       style="font-size:12.1955px;font-family:'Noto Sans CJK SC';-inkscape-font-specification:'Noto Sans CJK SC';stroke-width:1.32292;paint-order:stroke markers fill"
       d="m 78.831259,103.47615 h 5.23465 v -1.2503 l -3.78988,0.0296 v -6.084515 h -1.44477 z"
       id="path9" /><path
       style="font-size:12.1955px;font-family:'Noto Sans CJK SC';-inkscape-font-specification:'Noto Sans CJK SC';stroke-width:1.32292;paint-order:stroke markers fill"
       d="m 60.471644,120.363 h 1.3503 v -2.96473 h 1.247342 c 1.963475,0 2.593062,-1.2217 2.593062,-3.0998 0,-1.96348 -0.641782,-2.87477 -2.641844,-2.87477 h -2.54886 z m 1.3503,-4.46355 v -2.65547 h 1.052214 c 1.607606,0 1.60264,-0.0312 1.60264,1.36884 0,1.26833 0.01936,1.28663 -1.541663,1.28663 z"
       transform="scale(1.1625314,0.86019183)"
       id="text3" /><path
       id="path15"
       style="font-size:12.1955px;font-family:'Noto Sans CJK SC';-inkscape-font-specification:'Noto Sans CJK SC';stroke-width:1.32292;paint-order:stroke markers fill"
       d="m 105.35573,96.111963 -3.26544,7.423317 h 1.50534 l 0.8263,-1.80609 h 1.14262 l 0.82109,-1.1529 h -1.63763 l 1.10433,-2.577104 2.46755,5.536094 h 1.37511 l -3.16828,-7.423317 z" /></g><style
     type="text/css"
     id="style1">
	.st0{fill:#156488;}
	.st1{fill-rule:evenodd;clip-rule:evenodd;fill:#156488;}
	@media (prefers-color-scheme: dark) {
		.st0{fill:#FFFFFF;}
		.st1{fill:#FFFFFF;}
	}
</style></svg>
